<mxfile host="app.diagrams.net" agent="Mozilla/5.0 (Windows NT 10.0; Win64; x64) AppleWebKit/537.36 (KHTML, like Gecko) Chrome/137.0.0.0 Safari/537.36" version="27.1.6">
  <diagram name="Trang-1" id="fo2rpCo6iG3oqj0YcxJq">
    <mxGraphModel dx="946" dy="597" grid="1" gridSize="10" guides="1" tooltips="1" connect="1" arrows="1" fold="1" page="0" pageScale="1" pageWidth="827" pageHeight="1169" background="none" math="0" shadow="0">
      <root>
        <mxCell id="0" />
        <mxCell id="1" parent="0" />
        <mxCell id="Q4J_s7sV0ifHLwcTCHfh-1" value="" style="rounded=0;whiteSpace=wrap;html=1;dashed=1;dashPattern=1 2;fillColor=none;" parent="1" vertex="1">
          <mxGeometry x="20" y="80" width="130" height="440" as="geometry" />
        </mxCell>
        <mxCell id="Q4J_s7sV0ifHLwcTCHfh-2" value="SOURCES" style="rounded=0;whiteSpace=wrap;html=1;fontSize=19;dashed=1;dashPattern=1 1;strokeColor=none;fillColor=none;" parent="1" vertex="1">
          <mxGeometry x="30" y="60" width="120" height="30" as="geometry" />
        </mxCell>
        <mxCell id="Q4J_s7sV0ifHLwcTCHfh-4" value="&lt;span style=&quot;color: rgba(0, 0, 0, 0); font-family: monospace; font-size: 0px; text-align: start; text-wrap-mode: nowrap;&quot;&gt;%3CmxGraphModel%3E%3Croot%3E%3CmxCell%20id%3D%220%22%2F%3E%3CmxCell%20id%3D%221%22%20parent%3D%220%22%2F%3E%3CmxCell%20id%3D%222%22%20value%3D%22%22%20style%3D%22shape%3DflexArrow%3BendArrow%3Dclassic%3Bhtml%3D1%3Brounded%3D0%3Bwidth%3D14%3BendSize%3D7.92%3BentryX%3D0%3BentryY%3D0.5%3BentryDx%3D0%3BentryDy%3D0%3BfillColor%3D%23b1ddf0%3BstrokeColor%3D%2310739e%3BexitX%3D1.004%3BexitY%3D0.343%3BexitDx%3D0%3BexitDy%3D0%3BexitPerimeter%3D0%3B%22%20edge%3D%221%22%20parent%3D%221%22%3E%3CmxGeometry%20width%3D%2250%22%20height%3D%2250%22%20relative%3D%221%22%20as%3D%22geometry%22%3E%3CmxPoint%20x%3D%22139.99999999999997%22%20y%3D%22230.92000000000007%22%20as%3D%22sourcePoint%22%2F%3E%3CmxPoint%20x%3D%22199.48%22%20y%3D%22230%22%20as%3D%22targetPoint%22%2F%3E%3C%2FmxGeometry%3E%3C%2FmxCell%3E%3C%2Froot%3E%3C%2FmxGraphModel%3E&lt;/span&gt;&lt;span style=&quot;color: rgba(0, 0, 0, 0); font-family: monospace; font-size: 0px; text-align: start; text-wrap-mode: nowrap;&quot;&gt;%3CmxGraphModel%3E%3Croot%3E%3CmxCell%20id%3D%220%22%2F%3E%3CmxCell%20id%3D%221%22%20parent%3D%220%22%2F%3E%3CmxCell%20id%3D%222%22%20value%3D%22%22%20style%3D%22shape%3DflexArrow%3BendArrow%3Dclassic%3Bhtml%3D1%3Brounded%3D0%3Bwidth%3D14%3BendSize%3D7.92%3BentryX%3D0%3BentryY%3D0.5%3BentryDx%3D0%3BentryDy%3D0%3BfillColor%3D%23b1ddf0%3BstrokeColor%3D%2310739e%3BexitX%3D1.004%3BexitY%3D0.343%3BexitDx%3D0%3BexitDy%3D0%3BexitPerimeter%3D0%3B%22%20edge%3D%221%22%20parent%3D%221%22%3E%3CmxGeometry%20width%3D%2250%22%20height%3D%2250%22%20relative%3D%221%22%20as%3D%22geometry%22%3E%3CmxPoint%20x%3D%22139.99999999999997%22%20y%3D%22230.92000000000007%22%20as%3D%22sourcePoint%22%2F%3E%3CmxPoint%20x%3D%22199.48%22%20y%3D%22230%22%20as%3D%22targetPoint%22%2F%3E%3C%2FmxGeometry%3E%3C%2FmxCell%3E%3C%2Froot%3E%3C%2FmxGraphModel%3E&lt;/span&gt;" style="rounded=0;whiteSpace=wrap;html=1;dashed=1;dashPattern=1 2;fillColor=none;" parent="1" vertex="1">
          <mxGeometry x="190" y="80" width="470" height="440" as="geometry" />
        </mxCell>
        <mxCell id="Q4J_s7sV0ifHLwcTCHfh-5" value="&lt;br&gt;&lt;div&gt;DATA WAREHOUSE&lt;/div&gt;" style="rounded=0;whiteSpace=wrap;html=1;fontSize=19;dashed=1;dashPattern=1 1;strokeColor=none;fillColor=none;" parent="1" vertex="1">
          <mxGeometry x="290" y="40" width="260" height="40" as="geometry" />
        </mxCell>
        <mxCell id="Q4J_s7sV0ifHLwcTCHfh-6" value="" style="rounded=0;whiteSpace=wrap;html=1;dashed=1;dashPattern=1 2;fillColor=none;" parent="1" vertex="1">
          <mxGeometry x="700" y="80" width="130" height="440" as="geometry" />
        </mxCell>
        <mxCell id="Q4J_s7sV0ifHLwcTCHfh-7" value="CONSUME" style="rounded=0;whiteSpace=wrap;html=1;fontSize=19;dashed=1;dashPattern=1 1;strokeColor=none;fillColor=none;" parent="1" vertex="1">
          <mxGeometry x="700" y="60" width="120" height="30" as="geometry" />
        </mxCell>
        <mxCell id="Q4J_s7sV0ifHLwcTCHfh-8" value="Bronze Layer" style="rounded=1;whiteSpace=wrap;html=1;fillColor=#ffe6cc;strokeColor=light-dark(#D79B00,#472C00);fontSize=14;" parent="1" vertex="1">
          <mxGeometry x="210" y="100" width="120" height="20" as="geometry" />
        </mxCell>
        <mxCell id="Q4J_s7sV0ifHLwcTCHfh-10" value="&lt;br&gt;&lt;div&gt;&lt;br&gt;&lt;/div&gt;" style="rounded=1;whiteSpace=wrap;html=1;fillColor=none;strokeColor=default;fontSize=14;" parent="1" vertex="1">
          <mxGeometry x="210" y="120" width="120" height="370" as="geometry" />
        </mxCell>
        <mxCell id="Q4J_s7sV0ifHLwcTCHfh-11" value="Silver Layer" style="rounded=1;whiteSpace=wrap;html=1;fillColor=#dae8fc;strokeColor=#6c8ebf;fontSize=14;" parent="1" vertex="1">
          <mxGeometry x="370" y="100" width="120" height="20" as="geometry" />
        </mxCell>
        <mxCell id="Q4J_s7sV0ifHLwcTCHfh-12" value="&lt;br&gt;&lt;div&gt;&lt;br&gt;&lt;/div&gt;" style="rounded=1;whiteSpace=wrap;html=1;fillColor=none;strokeColor=default;fontSize=14;" parent="1" vertex="1">
          <mxGeometry x="370" y="130" width="120" height="360" as="geometry" />
        </mxCell>
        <mxCell id="Q4J_s7sV0ifHLwcTCHfh-13" value="Gold Layer" style="rounded=1;whiteSpace=wrap;html=1;fillColor=#e3c800;strokeColor=#B09500;fontSize=14;fontColor=#000000;" parent="1" vertex="1">
          <mxGeometry x="520" y="100" width="120" height="20" as="geometry" />
        </mxCell>
        <mxCell id="Q4J_s7sV0ifHLwcTCHfh-14" value="&lt;br&gt;&lt;div&gt;&lt;br&gt;&lt;/div&gt;" style="rounded=1;whiteSpace=wrap;html=1;fillColor=none;strokeColor=default;fontSize=14;" parent="1" vertex="1">
          <mxGeometry x="520" y="130" width="120" height="360" as="geometry" />
        </mxCell>
        <mxCell id="Q4J_s7sV0ifHLwcTCHfh-19" value="CRM" style="image;html=1;image=img/lib/clip_art/general/Full_Folder_128x128.png" parent="1" vertex="1">
          <mxGeometry x="40" y="150" width="80" height="80" as="geometry" />
        </mxCell>
        <mxCell id="Q4J_s7sV0ifHLwcTCHfh-20" value="ERP" style="image;html=1;image=img/lib/clip_art/general/Full_Folder_128x128.png" parent="1" vertex="1">
          <mxGeometry x="50" y="310" width="80" height="80" as="geometry" />
        </mxCell>
        <mxCell id="Q4J_s7sV0ifHLwcTCHfh-23" value="" style="shape=link;html=1;rounded=0;" parent="1" edge="1">
          <mxGeometry width="100" relative="1" as="geometry">
            <mxPoint x="40" y="420" as="sourcePoint" />
            <mxPoint x="140" y="420" as="targetPoint" />
          </mxGeometry>
        </mxCell>
        <mxCell id="Q4J_s7sV0ifHLwcTCHfh-24" value="&lt;b&gt;Object&amp;nbsp;&lt;/b&gt;&lt;span style=&quot;background-color: transparent; color: light-dark(rgb(0, 0, 0), rgb(255, 255, 255));&quot;&gt;&lt;b&gt;Type&lt;/b&gt;: CSV file&lt;/span&gt;&lt;div&gt;&lt;br&gt;&lt;div&gt;&lt;span style=&quot;background-color: transparent; color: light-dark(rgb(0, 0, 0), rgb(255, 255, 255));&quot;&gt;&lt;b&gt;Interface&lt;/b&gt;: File in folders&lt;/span&gt;&lt;/div&gt;&lt;/div&gt;" style="text;html=1;align=left;verticalAlign=middle;whiteSpace=wrap;rounded=0;" parent="1" vertex="1">
          <mxGeometry x="20" y="431" width="132" height="30" as="geometry" />
        </mxCell>
        <mxCell id="Q4J_s7sV0ifHLwcTCHfh-27" value="" style="html=1;verticalLabelPosition=bottom;align=center;labelBackgroundColor=#ffffff;verticalAlign=top;strokeWidth=2;strokeColor=#6D1F00;shadow=0;dashed=0;shape=mxgraph.ios7.icons.data;fillColor=light-dark(#A0522D,#794F3D);fontColor=#ffffff;" parent="1" vertex="1">
          <mxGeometry x="250" y="210" width="50" height="60" as="geometry" />
        </mxCell>
        <mxCell id="Q4J_s7sV0ifHLwcTCHfh-28" value="" style="html=1;verticalLabelPosition=bottom;align=center;labelBackgroundColor=#ffffff;verticalAlign=top;strokeWidth=2;strokeColor=#314354;shadow=0;dashed=0;shape=mxgraph.ios7.icons.data;fillColor=light-dark(#647687,#58646C);fontColor=#ffffff;" parent="1" vertex="1">
          <mxGeometry x="405" y="210" width="50" height="60" as="geometry" />
        </mxCell>
        <mxCell id="Q4J_s7sV0ifHLwcTCHfh-29" value="" style="html=1;verticalLabelPosition=bottom;align=center;labelBackgroundColor=#ffffff;verticalAlign=top;strokeWidth=2;strokeColor=#B09500;shadow=0;dashed=0;shape=mxgraph.ios7.icons.data;fillColor=light-dark(#E3C800,#3D2F00);fontColor=#000000;" parent="1" vertex="1">
          <mxGeometry x="550" y="210" width="50" height="60" as="geometry" />
        </mxCell>
        <mxCell id="Q4J_s7sV0ifHLwcTCHfh-31" value="" style="shape=flexArrow;endArrow=classic;html=1;rounded=0;width=14;endSize=7.92;entryX=0;entryY=0.5;entryDx=0;entryDy=0;fillColor=#b1ddf0;strokeColor=#10739e;exitX=1.004;exitY=0.343;exitDx=0;exitDy=0;exitPerimeter=0;" parent="1" edge="1">
          <mxGeometry width="50" height="50" relative="1" as="geometry">
            <mxPoint x="139.99999999999997" y="230.92000000000007" as="sourcePoint" />
            <mxPoint x="199.48" y="230" as="targetPoint" />
          </mxGeometry>
        </mxCell>
        <mxCell id="Q4J_s7sV0ifHLwcTCHfh-32" value="" style="shape=flexArrow;endArrow=classic;html=1;rounded=0;width=14;endSize=7.92;entryX=0;entryY=0.5;entryDx=0;entryDy=0;fillColor=#b1ddf0;strokeColor=#10739e;exitX=1.004;exitY=0.343;exitDx=0;exitDy=0;exitPerimeter=0;" parent="1" edge="1">
          <mxGeometry width="50" height="50" relative="1" as="geometry">
            <mxPoint x="320" y="230.92000000000007" as="sourcePoint" />
            <mxPoint x="379.48" y="230" as="targetPoint" />
          </mxGeometry>
        </mxCell>
        <mxCell id="Q4J_s7sV0ifHLwcTCHfh-35" value="" style="shape=flexArrow;endArrow=classic;html=1;rounded=0;width=14;endSize=7.92;entryX=0;entryY=0.5;entryDx=0;entryDy=0;fillColor=#b1ddf0;strokeColor=#10739e;exitX=1.004;exitY=0.343;exitDx=0;exitDy=0;exitPerimeter=0;" parent="1" edge="1">
          <mxGeometry width="50" height="50" relative="1" as="geometry">
            <mxPoint x="480" y="230.92000000000007" as="sourcePoint" />
            <mxPoint x="539.48" y="230" as="targetPoint" />
          </mxGeometry>
        </mxCell>
        <mxCell id="Q4J_s7sV0ifHLwcTCHfh-37" value="Raw Data" style="text;html=1;align=center;verticalAlign=middle;whiteSpace=wrap;rounded=0;" parent="1" vertex="1">
          <mxGeometry x="245" y="280" width="60" height="30" as="geometry" />
        </mxCell>
        <mxCell id="Q4J_s7sV0ifHLwcTCHfh-39" value="Cleaned, standardized data" style="text;html=1;align=center;verticalAlign=middle;whiteSpace=wrap;rounded=0;" parent="1" vertex="1">
          <mxGeometry x="380" y="280" width="100" height="30" as="geometry" />
        </mxCell>
        <mxCell id="Q4J_s7sV0ifHLwcTCHfh-40" value="Business Ready data" style="text;html=1;align=center;verticalAlign=middle;whiteSpace=wrap;rounded=0;" parent="1" vertex="1">
          <mxGeometry x="530" y="280" width="100" height="20" as="geometry" />
        </mxCell>
        <mxCell id="Q4J_s7sV0ifHLwcTCHfh-42" value="" style="shape=flexArrow;endArrow=classic;html=1;rounded=0;width=14;endSize=7.92;entryX=0;entryY=0.5;entryDx=0;entryDy=0;fillColor=#b1ddf0;strokeColor=#10739e;exitX=1.004;exitY=0.343;exitDx=0;exitDy=0;exitPerimeter=0;" parent="1" edge="1">
          <mxGeometry width="50" height="50" relative="1" as="geometry">
            <mxPoint x="650" y="230.92000000000007" as="sourcePoint" />
            <mxPoint x="709.48" y="230" as="targetPoint" />
          </mxGeometry>
        </mxCell>
        <mxCell id="Q4J_s7sV0ifHLwcTCHfh-45" value="" style="shape=link;html=1;rounded=0;" parent="1" edge="1">
          <mxGeometry width="100" relative="1" as="geometry">
            <mxPoint x="220" y="320" as="sourcePoint" />
            <mxPoint x="320" y="320" as="targetPoint" />
          </mxGeometry>
        </mxCell>
        <mxCell id="Q4J_s7sV0ifHLwcTCHfh-46" value="" style="shape=link;html=1;rounded=0;" parent="1" edge="1">
          <mxGeometry width="100" relative="1" as="geometry">
            <mxPoint x="380" y="320" as="sourcePoint" />
            <mxPoint x="480" y="320" as="targetPoint" />
          </mxGeometry>
        </mxCell>
        <mxCell id="Q4J_s7sV0ifHLwcTCHfh-47" value="" style="shape=link;html=1;rounded=0;" parent="1" edge="1">
          <mxGeometry width="100" relative="1" as="geometry">
            <mxPoint x="530" y="320" as="sourcePoint" />
            <mxPoint x="630" y="320" as="targetPoint" />
          </mxGeometry>
        </mxCell>
        <mxCell id="Q4J_s7sV0ifHLwcTCHfh-49" value="&lt;b&gt;Object&amp;nbsp;&lt;/b&gt;&lt;span style=&quot;background-color: transparent; color: light-dark(rgb(0, 0, 0), rgb(255, 255, 255));&quot;&gt;&lt;b&gt;Type&lt;/b&gt;: Table&lt;/span&gt;&lt;div&gt;&lt;br&gt;&lt;div&gt;&lt;b&gt;Load:&lt;/b&gt;&lt;/div&gt;&lt;/div&gt;&lt;div&gt;&lt;b&gt;&lt;span style=&quot;white-space: pre;&quot;&gt;&#x9;&lt;/span&gt;-Batch Processing&lt;br&gt;&lt;/b&gt;&lt;/div&gt;&lt;div&gt;&lt;b&gt;&lt;span style=&quot;white-space: pre;&quot;&gt;&#x9;&lt;/span&gt;-Full load&lt;br&gt;&lt;/b&gt;&lt;/div&gt;" style="text;html=1;align=left;verticalAlign=middle;whiteSpace=wrap;rounded=0;" parent="1" vertex="1">
          <mxGeometry x="210" y="340" width="140" height="60" as="geometry" />
        </mxCell>
      </root>
    </mxGraphModel>
  </diagram>
</mxfile>
